#!OML:ASF I:\Actors\actors\Patient Classification 1\Patient 1\Session 1\Subject1.ASF
:FULLY-SPECIFIED
:DEGREES
1110
root 0.526538 17.5112 9.98233 12.5298 -6.11574 -9.67406
lowerback -1.2563 3.09533 8.24326
upperback -8.42755 4.55555 1.98071
thorax -7.73925 1.76372 -2.72157
lowerneck -13.3289 -1.64376 -0.159883
upperneck 30.7901 -3.16051 2.4512
head 12.4371 -1.11077 0.5035
rclavicle -1.20016e-014 -5.06901e-015
rhumerus 0.783751 52.6207 -73.0862
rradius 97.6147
rwrist 4.21686
rhand 10.8227 -56.483
rfingers 7.12502
rthumb 35.9062 -82.8225
lclavicle -1.20016e-014 -5.06901e-015
lhumerus -25.6556 -38.6014 82.8725
lradius 99.3481
lwrist -28.9377
lhand -18.0505 -27.8427
lfingers 7.12502
lthumb 8.22161 1.97737
rfemur -6.2582 22.4257 25.5425
rtibia 5.01888
rfoot -13.2946 -20.3316
rtoes -1.53326
lfemur 8.81958 -48.2555 -14.9235
ltibia -4.58902
lfoot -44.6927 57.3256
ltoes 24.3231
1111
root 0.523177 17.5128 9.97523 12.6537 -6.3636 -9.80103
lowerback -1.19453 3.15092 8.20895
upperback -8.47854 4.64468 2.06308
thorax -7.83155 1.80823 -2.62458
lowerneck -13.4195 -1.62929 -0.142074
upperneck 30.7812 -3.13874 2.42985
head 12.4514 -1.10114 0.494584
rclavicle -5.20816e-014 -2.55438e-014
rhumerus 1.55757 52.5836 -73.3216
rradius 97.1011
rwrist 4.76987
rhand 10.501 -56.3964
rfingers 7.12502
rthumb 35.6013 -82.8099
lclavicle -5.20816e-014 -2.55438e-014
lhumerus -25.7662 -38.4248 82.9755
lradius 99.4039
lwrist -29.134
lhand -17.9297 -27.8983
lfingers 7.12502
lthumb 8.33819 1.91711
rfemur -6.40684 22.5875 25.604
rtibia 4.97496
rfoot -13.1547 -20.1804
rtoes -1.58986
lfemur 8.86754 -48.5481 -14.8701
ltibia -4.57579
lfoot -45.8392 57.4366
ltoes 25.0534
1112
root 0.519522 17.5144 9.97184 12.7011 -6.45027 -9.878
lowerback -1.16153 3.14385 8.18034
upperback -8.49205 4.64173 2.10835
thorax -7.87163 1.80848 -2.56361
lowerneck -13.5453 -1.63039 -0.12498
upperneck 30.8186 -3.15515 2.44919
head 12.4937 -1.10245 0.495564
rclavicle 9.72802e-015 -3.61788e-014
rhumerus 2.02254 52.5314 -73.5439
rradius 96.8314
rwrist 5.22167
rhand 10.2805 -56.278
rfingers 7.12502
rthumb 35.3924 -82.7415
lclavicle 9.72802e-015 -3.61788e-014
lhumerus -25.814 -38.2625 83.0051
lradius 99.4349
lwrist -29.1885
lhand -17.9817 -27.8027
lfingers 7.12502
lthumb 8.28796 2.01472
rfemur -6.45572 22.6644 25.6764
rtibia 4.95401
rfoot -13.122 -20.136
rtoes -1.53421
lfemur 9.01056 -48.9021 -14.923
ltibia -4.5929
lfoot -46.5926 57.6649
ltoes 25.3984
1113
root 0.516921 17.5149 9.96872 12.7082 -6.34446 -9.87097
lowerback -1.1434 3.06885 8.12313
upperback -8.49429 4.54263 2.12452
thorax -7.89912 1.76293 -2.51267
lowerneck -13.5713 -1.64941 -0.179242
upperneck 30.7662 -3.20704 2.5718
head 12.4825 -1.1167 0.543632
rclavicle 1.17904e-014 7.05686e-015
rhumerus 2.16937 52.5108 -73.6959
rradius 96.8342
rwrist 5.41657
rhand 10.1743 -56.2076
rfingers 7.12502
rthumb 35.2916 -82.695
lclavicle 1.17904e-014 7.05686e-015
lhumerus -25.8114 -38.1117 83.0117
lradius 99.397
lwrist -29.1832
lhand -18.0443 -27.7257
lfingers 7.12502
lthumb 8.22757 2.0941
rfemur -6.45998 22.6625 25.686
rtibia 4.92568
rfoot -13.1114 -20.2197
rtoes -1.5196
lfemur 9.00916 -49.1332 -14.93
ltibia -4.5854
lfoot -46.662 57.8423
ltoes 25.3116
1114
root 0.513868 17.5146 9.96743 12.6852 -6.0499 -9.82033
lowerback -1.15066 2.94375 8.0272
upperback -8.50358 4.37241 2.13092
thorax -7.92754 1.68459 -2.44652
lowerneck -13.4967 -1.67681 -0.238348
upperneck 30.6581 -3.27975 2.73638
head 12.4288 -1.1371 0.606072
rclavicle -7.85199e-015 -4.63168e-014
rhumerus 1.83615 52.4515 -73.864
rradius 97.152
rwrist 5.44618
rhand 10.3054 -56.1509
rfingers 7.12502
rthumb 35.416 -82.6088
lclavicle -7.85199e-015 -4.63168e-014
lhumerus -25.7705 -37.9684 83.0409
lradius 99.3311
lwrist -29.1156
lhand -18.3053 -27.7298
lfingers 7.12502
lthumb 7.97563 2.09973
rfemur -6.39311 22.5558 25.6838
rtibia 4.85961
rfoot -13.1256 -20.3759
rtoes -1.58807
lfemur 8.83524 -49.1745 -14.8129
ltibia -4.54962
lfoot -46.1899 57.7929
ltoes 25.074
1115
root 0.509824 17.514 9.96889 12.6091 -5.62864 -9.81964
lowerback -1.15446 2.79373 7.99902
upperback -8.50465 4.1709 2.13599
thorax -7.94809 1.58654 -2.41735
lowerneck -13.4748 -1.71749 -0.230069
upperneck 30.6409 -3.36956 2.82409
head 12.4211 -1.16547 0.62499
rclavicle 2.3233e-015 -6.36111e-015
rhumerus 1.09088 52.4242 -73.9964
rradius 97.771
rwrist 5.4935
rhand 10.645 -56.1718
rfingers 7.12502
rthumb 35.7379 -82.5522
lclavicle 2.3233e-015 -6.36111e-015
lhumerus -25.702 -37.8665 83.0429
lradius 99.2802
lwrist -28.9633
lhand -18.7799 -27.8666
lfingers 7.12502
lthumb 7.51764 1.97986
rfemur -6.23183 22.3899 25.7944
rtibia 4.7882
rfoot -13.2126 -20.585
rtoes -1.45042
lfemur 8.71414 -49.192 -14.6441
ltibia -4.53934
lfoot -45.4956 57.7088
ltoes 24.6743
1116
root 0.507149 17.5124 9.96983 12.5146 -5.16911 -9.84043
lowerback -1.13095 2.62914 8.00711
upperback -8.50737 3.95437 2.14294
thorax -7.98632 1.47782 -2.40666
lowerneck -13.4933 -1.75959 -0.246655
upperneck 30.6926 -3.46022 2.91871
head 12.4508 -1.19477 0.650703
rclavicle 1.01504e-014 -1.76918e-014
rhumerus 0.0368463 52.5176 -74.1145
rradius 98.5363
rwrist 5.50962
rhand 11.0106 -56.2946
rfingers 7.12502
rthumb 36.0842 -82.5904
lclavicle 1.01504e-014 -1.76918e-014
lhumerus -25.6537 -37.7864 83.0119
lradius 99.2012
lwrist -28.9059
lhand -18.6132 -27.8806
lfingers 7.12502
lthumb 7.67852 1.95999
rfemur -6.10456 22.1904 25.9313
rtibia 4.80185
rfoot -13.3782 -20.8006
rtoes -1.02266
lfemur 8.60688 -49.1888 -14.4453
ltibia -4.55646
lfoot -44.5824 57.673
ltoes 23.9586
1117
root 0.504478 17.5111 9.97123 12.4245 -4.73895 -9.85867
lowerback -1.11925 2.48179 7.94349
upperback -8.50488 3.75923 2.18571
thorax -8.01521 1.38684 -2.31873
lowerneck -13.503 -1.80069 -0.334711
upperneck 30.7251 -3.53594 3.03642
head 12.4723 -1.22292 0.699831
rclavicle 1.82385e-014 1.98785e-015
rhumerus -1.37207 52.574 -74.316
rradius 99.3108
rwrist 5.3711
rhand 11.4418 -56.3174
rfingers 7.12502
rthumb 36.4925 -82.5114
lclavicle 1.82385e-014 1.98785e-015
lhumerus -25.6414 -37.6784 83.0432
lradius 99.1067
lwrist -28.9941
lhand -17.6817 -27.8451
lfingers 7.12502
lthumb 8.57749 1.96062
rfemur -6.01824 22.0245 26.054
rtibia 4.87361
rfoot -13.5615 -21.0357
rtoes -0.647743
lfemur 8.4755 -49.0685 -14.2072
ltibia -4.61399
lfoot -43.4503 57.5682
ltoes 23.2162
1118
root 0.500136 17.5109 9.97473 12.2907 -4.30823 -9.89829
lowerback -1.09409 2.34237 7.82392
upperback -8.48159 3.57654 2.284
thorax -8.03288 1.30927 -2.14205
lowerneck -13.6029 -1.85232 -0.440203
upperneck 30.812 -3.59529 3.06157
head 12.5329 -1.25579 0.718609
rclavicle 3.17062e-014 5.82439e-014
rhumerus -3.10268 52.5353 -74.6221
rradius 100.013
rwrist 5.02682
rhand 11.8655 -56.3055
rfingers 7.12502
rthumb 36.8935 -82.3975
lclavicle 3.17062e-014 5.82439e-014
lhumerus -25.6618 -37.5434 83.1806
lradius 99.0111
lwrist -29.1949
lhand -17.1329 -27.9602
lfingers 7.12502
lthumb 9.10712 1.82313
rfemur -5.85701 21.9201 26.2388
rtibia 4.94614
rfoot -13.7113 -21.3386
rtoes -0.550846
lfemur 8.43302 -48.8924 -13.9831
ltibia -4.72065
lfoot -42.1164 57.4459
ltoes 22.424
1119
root 0.49808 17.5106 9.97894 12.1225 -3.81711 -9.87004
lowerback -1.06096 2.15115 7.67711
upperback -8.45064 3.32318 2.37653
thorax -8.05222 1.19853 -1.95297
lowerneck -13.7212 -1.88379 -0.50252
upperneck 30.9152 -3.61813 3.02451
head 12.6011 -1.27527 0.711314
rclavicle -5.91384e-015 4.57205e-015
rhumerus -4.91777 52.5009 -75.0383
rradius 100.564
rwrist 4.60133
rhand 12.115 -56.4057
rfingers 7.12502
rthumb 37.1295 -82.4365
lclavicle -5.91384e-015 4.57205e-015
lhumerus -25.7547 -37.3869 83.3487
lradius 98.9175
lwrist -29.4095
lhand -17.3137 -27.9445
lfingers 7.12502
lthumb 8.93262 1.84642
rfemur -5.63105 21.8323 26.3613
rtibia 4.98187
rfoot -13.915 -21.7014
rtoes -0.341991
lfemur 8.42835 -48.8277 -13.8901
ltibia -4.78949
lfoot -40.8809 57.3221
ltoes 21.6984
1120
root 0.499011 17.5095 9.98472 11.9859 -3.3512 -9.78219
lowerback -1.09443 1.95694 7.51617
upperback -8.42315 3.05675 2.44732
thorax -8.03461 1.0827 -1.77532
lowerneck -13.7171 -1.89716 -0.544756
upperneck 30.9128 -3.6237 3.01547
head 12.5999 -1.28419 0.714327
rclavicle 2.69477e-014 -3.56818e-014
rhumerus -6.6303 52.4578 -75.4618
rradius 101.031
rwrist 4.25314
rhand 12.1476 -56.4782
rfingers 7.12502
rthumb 37.1603 -82.5011
lclavicle 2.69477e-014 -3.56818e-014
lhumerus -25.9378 -37.264 83.5969
lradius 98.9255
lwrist -29.2721
lhand -17.3945 -27.7616
lfingers 7.12502
lthumb 8.85464 2.03264
rfemur -5.44756 21.6771 26.3797
rtibia 5.01611
rfoot -14.159 -21.9747
rtoes 0.00813056
lfemur 8.36651 -48.7774 -13.8679
ltibia -4.79704
lfoot -39.8259 57.1479
ltoes 21.0735
